<mxfile host="app.diagrams.net" modified="2022-12-09T03:46:51.033Z" agent="5.0 (Windows NT 10.0; WOW64) AppleWebKit/537.36 (KHTML, like Gecko) Chrome/104.0.0.0 Safari/537.36" version="20.6.0" etag="zrSqBhL2FgzItHu8zHRr" type="github">
  <diagram id="4zhZqUck9lz8sgFO87ou" name="第 1 页">
    <mxGraphModel dx="779" dy="1982" grid="1" gridSize="10" guides="1" tooltips="1" connect="1" arrows="1" fold="1" page="1" pageScale="1" pageWidth="827" pageHeight="1169" math="0" shadow="0">
      <root>
        <mxCell id="0" />
        <mxCell id="1" parent="0" />
        <mxCell id="5pUDHYPp18FeXF1OPH93-1" value="小法庭出庭准备流程图" style="text;html=1;strokeColor=none;fillColor=none;align=center;verticalAlign=middle;whiteSpace=wrap;rounded=0;" vertex="1" parent="1">
          <mxGeometry x="330" y="-10" width="150" height="30" as="geometry" />
        </mxCell>
        <mxCell id="5pUDHYPp18FeXF1OPH93-2" value="交易人员" style="shape=umlActor;verticalLabelPosition=bottom;verticalAlign=top;html=1;outlineConnect=0;" vertex="1" parent="1">
          <mxGeometry x="70" y="60" width="40" height="30" as="geometry" />
        </mxCell>
        <mxCell id="5pUDHYPp18FeXF1OPH93-3" value="陪审团" style="shape=umlActor;verticalLabelPosition=bottom;verticalAlign=top;html=1;outlineConnect=0;" vertex="1" parent="1">
          <mxGeometry x="70" y="170" width="40" height="30" as="geometry" />
        </mxCell>
        <mxCell id="5pUDHYPp18FeXF1OPH93-9" style="edgeStyle=orthogonalEdgeStyle;rounded=0;orthogonalLoop=1;jettySize=auto;html=1;entryX=0;entryY=0.5;entryDx=0;entryDy=0;" edge="1" parent="1" source="5pUDHYPp18FeXF1OPH93-4" target="5pUDHYPp18FeXF1OPH93-5">
          <mxGeometry relative="1" as="geometry" />
        </mxCell>
        <mxCell id="5pUDHYPp18FeXF1OPH93-4" value="开始" style="rounded=1;whiteSpace=wrap;html=1;" vertex="1" parent="1">
          <mxGeometry x="130" y="60" width="90" height="40" as="geometry" />
        </mxCell>
        <mxCell id="5pUDHYPp18FeXF1OPH93-10" style="edgeStyle=orthogonalEdgeStyle;rounded=0;orthogonalLoop=1;jettySize=auto;html=1;entryX=0;entryY=0.5;entryDx=0;entryDy=0;" edge="1" parent="1" source="5pUDHYPp18FeXF1OPH93-5" target="5pUDHYPp18FeXF1OPH93-6">
          <mxGeometry relative="1" as="geometry" />
        </mxCell>
        <mxCell id="5pUDHYPp18FeXF1OPH93-5" value="买家/卖家发起小法庭申请" style="rounded=0;whiteSpace=wrap;html=1;" vertex="1" parent="1">
          <mxGeometry x="250" y="60" width="92" height="40" as="geometry" />
        </mxCell>
        <mxCell id="5pUDHYPp18FeXF1OPH93-11" style="edgeStyle=orthogonalEdgeStyle;rounded=0;orthogonalLoop=1;jettySize=auto;html=1;" edge="1" parent="1" source="5pUDHYPp18FeXF1OPH93-6" target="5pUDHYPp18FeXF1OPH93-7">
          <mxGeometry relative="1" as="geometry" />
        </mxCell>
        <mxCell id="5pUDHYPp18FeXF1OPH93-6" value="交易双方上传材料至平台" style="rounded=0;whiteSpace=wrap;html=1;" vertex="1" parent="1">
          <mxGeometry x="366" y="60" width="95" height="40" as="geometry" />
        </mxCell>
        <mxCell id="5pUDHYPp18FeXF1OPH93-13" value="是" style="edgeStyle=orthogonalEdgeStyle;rounded=0;orthogonalLoop=1;jettySize=auto;html=1;" edge="1" parent="1" source="5pUDHYPp18FeXF1OPH93-7" target="5pUDHYPp18FeXF1OPH93-8">
          <mxGeometry relative="1" as="geometry" />
        </mxCell>
        <mxCell id="5pUDHYPp18FeXF1OPH93-24" style="edgeStyle=orthogonalEdgeStyle;rounded=0;orthogonalLoop=1;jettySize=auto;html=1;entryX=0.5;entryY=0;entryDx=0;entryDy=0;" edge="1" parent="1" source="5pUDHYPp18FeXF1OPH93-7" target="5pUDHYPp18FeXF1OPH93-6">
          <mxGeometry relative="1" as="geometry">
            <Array as="points">
              <mxPoint x="550" y="50" />
              <mxPoint x="414" y="50" />
            </Array>
          </mxGeometry>
        </mxCell>
        <mxCell id="5pUDHYPp18FeXF1OPH93-25" value="否" style="edgeLabel;html=1;align=center;verticalAlign=middle;resizable=0;points=[];" vertex="1" connectable="0" parent="5pUDHYPp18FeXF1OPH93-24">
          <mxGeometry x="0.1592" y="-1" relative="1" as="geometry">
            <mxPoint as="offset" />
          </mxGeometry>
        </mxCell>
        <mxCell id="5pUDHYPp18FeXF1OPH93-7" value="交易双方是否都已提交材料" style="rhombus;whiteSpace=wrap;html=1;" vertex="1" parent="1">
          <mxGeometry x="490" y="55" width="120" height="50" as="geometry" />
        </mxCell>
        <mxCell id="5pUDHYPp18FeXF1OPH93-8" value="等待出庭通知" style="rounded=0;whiteSpace=wrap;html=1;" vertex="1" parent="1">
          <mxGeometry x="640" y="60" width="110" height="40" as="geometry" />
        </mxCell>
        <mxCell id="5pUDHYPp18FeXF1OPH93-14" style="edgeStyle=orthogonalEdgeStyle;rounded=0;orthogonalLoop=1;jettySize=auto;html=1;entryX=0;entryY=0.5;entryDx=0;entryDy=0;" edge="1" source="5pUDHYPp18FeXF1OPH93-15" target="5pUDHYPp18FeXF1OPH93-17" parent="1">
          <mxGeometry relative="1" as="geometry" />
        </mxCell>
        <mxCell id="5pUDHYPp18FeXF1OPH93-15" value="开始" style="rounded=1;whiteSpace=wrap;html=1;" vertex="1" parent="1">
          <mxGeometry x="130" y="165" width="90" height="40" as="geometry" />
        </mxCell>
        <mxCell id="5pUDHYPp18FeXF1OPH93-16" style="edgeStyle=orthogonalEdgeStyle;rounded=0;orthogonalLoop=1;jettySize=auto;html=1;entryX=0;entryY=0.5;entryDx=0;entryDy=0;" edge="1" source="5pUDHYPp18FeXF1OPH93-17" target="5pUDHYPp18FeXF1OPH93-19" parent="1">
          <mxGeometry relative="1" as="geometry" />
        </mxCell>
        <mxCell id="5pUDHYPp18FeXF1OPH93-17" value="开放陪审团申请" style="rounded=0;whiteSpace=wrap;html=1;" vertex="1" parent="1">
          <mxGeometry x="238" y="165" width="70" height="40" as="geometry" />
        </mxCell>
        <mxCell id="5pUDHYPp18FeXF1OPH93-29" style="edgeStyle=orthogonalEdgeStyle;rounded=0;orthogonalLoop=1;jettySize=auto;html=1;entryX=0;entryY=0.5;entryDx=0;entryDy=0;fontSize=10;" edge="1" parent="1" source="5pUDHYPp18FeXF1OPH93-19" target="5pUDHYPp18FeXF1OPH93-26">
          <mxGeometry relative="1" as="geometry" />
        </mxCell>
        <mxCell id="5pUDHYPp18FeXF1OPH93-19" value="提交资质资料" style="rounded=0;whiteSpace=wrap;html=1;" vertex="1" parent="1">
          <mxGeometry x="330" y="165" width="64" height="40" as="geometry" />
        </mxCell>
        <mxCell id="5pUDHYPp18FeXF1OPH93-20" value="是" style="edgeStyle=orthogonalEdgeStyle;rounded=0;orthogonalLoop=1;jettySize=auto;html=1;" edge="1" source="5pUDHYPp18FeXF1OPH93-21" target="5pUDHYPp18FeXF1OPH93-22" parent="1">
          <mxGeometry relative="1" as="geometry" />
        </mxCell>
        <mxCell id="5pUDHYPp18FeXF1OPH93-27" style="edgeStyle=orthogonalEdgeStyle;rounded=0;orthogonalLoop=1;jettySize=auto;html=1;entryX=0.5;entryY=0;entryDx=0;entryDy=0;" edge="1" parent="1" source="5pUDHYPp18FeXF1OPH93-21" target="5pUDHYPp18FeXF1OPH93-17">
          <mxGeometry relative="1" as="geometry">
            <Array as="points">
              <mxPoint x="555" y="145" />
              <mxPoint x="285" y="145" />
            </Array>
          </mxGeometry>
        </mxCell>
        <mxCell id="5pUDHYPp18FeXF1OPH93-28" value="否" style="edgeLabel;html=1;align=center;verticalAlign=middle;resizable=0;points=[];" vertex="1" connectable="0" parent="5pUDHYPp18FeXF1OPH93-27">
          <mxGeometry x="0.0715" y="-1" relative="1" as="geometry">
            <mxPoint as="offset" />
          </mxGeometry>
        </mxCell>
        <mxCell id="5pUDHYPp18FeXF1OPH93-21" value="&lt;font style=&quot;font-size: 10px;&quot;&gt;陪审团人数是否6-12人&lt;/font&gt;" style="rhombus;whiteSpace=wrap;html=1;fontSize=10;" vertex="1" parent="1">
          <mxGeometry x="500" y="160" width="110" height="50" as="geometry" />
        </mxCell>
        <mxCell id="5pUDHYPp18FeXF1OPH93-22" value="获取交易双方材料，等待出庭通知" style="rounded=0;whiteSpace=wrap;html=1;" vertex="1" parent="1">
          <mxGeometry x="640" y="165" width="110" height="40" as="geometry" />
        </mxCell>
        <mxCell id="5pUDHYPp18FeXF1OPH93-30" style="edgeStyle=orthogonalEdgeStyle;rounded=0;orthogonalLoop=1;jettySize=auto;html=1;entryX=0;entryY=0.5;entryDx=0;entryDy=0;fontSize=10;" edge="1" parent="1" source="5pUDHYPp18FeXF1OPH93-26" target="5pUDHYPp18FeXF1OPH93-21">
          <mxGeometry relative="1" as="geometry" />
        </mxCell>
        <mxCell id="5pUDHYPp18FeXF1OPH93-26" value="通过平台审核" style="rounded=0;whiteSpace=wrap;html=1;" vertex="1" parent="1">
          <mxGeometry x="414" y="165" width="64" height="40" as="geometry" />
        </mxCell>
      </root>
    </mxGraphModel>
  </diagram>
</mxfile>
